<svg xmlns="http://www.w3.org/2000/svg" width="256" height="256" viewBox="0 0 100 100"><rect width="100" height="100" rx="20" fill="#fdff3c"></rect><path fill="#000000" d="M10.72 67.00L10.72 67.00Q10.10 67.16 8.81 67.33Q7.52 67.50 6.18 67.50L6.18 67.50Q3.21 67.50 2.06 66.49Q0.92 65.48 0.92 62.85L0.92 62.85L0.92 33.00Q1.59 32.89 2.88 32.70Q4.16 32.50 5.45 32.50L5.45 32.50Q8.25 32.50 9.48 33.45Q10.72 34.40 10.72 37.15L10.72 37.15L10.72 46.22L21.47 46.22L21.47 33.00Q22.14 32.89 23.43 32.70Q24.72 32.50 26.00 32.50L26.00 32.50Q28.80 32.50 30.04 33.51Q31.27 34.52 31.27 37.26L31.27 37.26L31.27 67.00Q30.65 67.16 29.36 67.33Q28.08 67.50 26.73 67.50L26.73 67.50Q23.76 67.50 22.62 66.49Q21.47 65.48 21.47 62.85L21.47 62.85L21.47 53.95L10.72 53.95L10.72 67.00ZM43.81 67.50L43.81 67.50Q40.84 67.50 39.70 66.49Q38.55 65.48 38.55 62.85L38.55 62.85L38.55 33.00Q39.22 32.89 40.51 32.70Q41.80 32.50 43.08 32.50L43.08 32.50Q45.88 32.50 47.12 33.45Q48.35 34.40 48.35 37.15L48.35 37.15L48.35 67.00Q47.73 67.16 46.44 67.33Q45.16 67.50 43.81 67.50ZM60.89 67.50L60.89 67.50Q57.92 67.50 56.78 66.49Q55.63 65.48 55.63 62.85L55.63 62.85L55.63 33.00Q56.30 32.89 57.59 32.70Q58.88 32.50 60.16 32.50L60.16 32.50Q62.96 32.50 64.20 33.45Q65.43 34.40 65.43 37.15L65.43 37.15L65.43 67.00Q64.81 67.16 63.52 67.33Q62.24 67.50 60.89 67.50ZM98.08 33.12L98.08 33.12Q98.47 33.73 98.78 34.74Q99.08 35.75 99.08 36.92L99.08 36.92Q99.08 39.05 98.16 40.00Q97.24 40.96 95.67 40.96L95.67 40.96L89.34 40.96L89.34 67.00Q88.72 67.16 87.44 67.33Q86.15 67.50 84.80 67.50L84.80 67.50Q81.84 67.50 80.69 66.49Q79.54 65.48 79.54 62.85L79.54 62.85L79.54 40.96L71.08 40.96Q70.69 40.34 70.38 39.33Q70.08 38.32 70.08 37.15L70.08 37.15Q70.08 35.02 71 34.07Q71.92 33.12 73.49 33.12L73.49 33.12L98.08 33.12Z"></path></svg>