<svg xmlns="http://www.w3.org/2000/svg" width="256" height="256" viewBox="0 0 100 100"><rect width="100" height="100" rx="20" fill="#fdff3c"></rect><path fill="#000000" d="M39.63 82.78L39.63 82.78Q38.44 83.10 35.96 83.43Q33.48 83.75 30.88 83.75L30.88 83.75Q25.16 83.75 22.95 81.81Q20.73 79.86 20.73 74.79L20.73 74.79L20.73 17.22Q22.03 17.01 24.51 16.63Q27.00 16.25 29.48 16.25L29.48 16.25Q34.88 16.25 37.26 18.09Q39.63 19.92 39.63 25.21L39.63 25.21L39.63 42.71L60.37 42.71L60.37 17.22Q61.66 17.01 64.15 16.63Q66.63 16.25 69.12 16.25L69.12 16.25Q74.52 16.25 76.89 18.19Q79.27 20.14 79.27 25.43L79.27 25.43L79.27 82.78Q78.08 83.10 75.60 83.43Q73.11 83.75 70.52 83.75L70.52 83.75Q64.80 83.75 62.58 81.81Q60.37 79.86 60.37 74.79L60.37 74.79L60.37 57.61L39.63 57.61L39.63 82.78Z"></path></svg>